<?xml version="1.0" encoding="UTF-8" standalone="no"?>
<svg
   viewBox="-0.692 0.5 51.573 55.285"
   width="2385"
   height="2500"
   version="1.1"
   id="svg4"
   sodipodi:docname="lichess_w.svg"
   inkscape:version="1.1 (c68e22c387, 2021-05-23)"
   xmlns:inkscape="http://www.inkscape.org/namespaces/inkscape"
   xmlns:sodipodi="http://sodipodi.sourceforge.net/DTD/sodipodi-0.dtd"
   xmlns="http://www.w3.org/2000/svg"
   xmlns:svg="http://www.w3.org/2000/svg">
  <defs
     id="defs8" />
  <sodipodi:namedview
     id="namedview6"
     pagecolor="#505050"
     bordercolor="#ffffff"
     borderopacity="1"
     inkscape:pageshadow="0"
     inkscape:pageopacity="0"
     inkscape:pagecheckerboard="1"
     showgrid="false"
     inkscape:zoom="0.3328"
     inkscape:cx="1104.2668"
     inkscape:cy="1251.5024"
     inkscape:window-width="1920"
     inkscape:window-height="1017"
     inkscape:window-x="-8"
     inkscape:window-y="-8"
     inkscape:window-maximized="1"
     inkscape:current-layer="svg4" />
  <path
     d="m 38.595852,2.6050832 c -3.53,0.4179999 -6.452,0.9019998 -9.286,2.9840023 C 5.1738563,3.8910829 -1.0521447,20.638084 0.31985533,31.469084 c 2.81299897,20.85 31.23799667,26.421 40.64899767,12.336 -7.444001,7.696 -19.276001,8.752 -28.323,3.084 -9.0469987,-5.668 -13.51199667,-17.392 -8.3229977,-27.217 C 9.5128583,9.8470834 18.635853,6.6400807 28.669853,8.5100811 c 2.43,-1.4180001 5.225,-3.2199946 7.655,-3.1869947 l -1.694001,4.8599976 12.752002,21.37 c -0.439,5.654 -5.459002,6.112 -5.459002,6.112 -0.574,-1.47 -1.634,-2.942 -4.842,-6.036 -3.207,-3.094 -17.465,-10.177 -15.787999,-16.207001 -2.001001,6.967001 10.311,14.152001 14.04,17.663001 3.729999,3.51 5.426,6.04 5.795,6.756 0,0 9.392001,-2.504 7.838001,-8.927 L 37.039852,9.2760824 Z"
     stroke="#ffffff"
     stroke-linejoin="round"
     id="path2"
     style="fill:#ffffff;fill-opacity:1" />
</svg>
